P3
4 4
255
1 1 1 101 1 1 1 1 1 255 1 255 
1 1 1 1 255 176 1 1 1 1 1 1 
1 1 1 1 1 1 1 16 176 1 1 1 
255 1 255 1 1 1 1 1 1 255 255 255 
